<?xml version="1.0" standalone="no"?>
<!DOCTYPE svg PUBLIC "-//W3C//DTD SVG 20010904//EN"
 "http://www.w3.org/TR/2001/REC-SVG-20010904/DTD/svg10.dtd">
<svg version="1.0" xmlns="http://www.w3.org/2000/svg"
 width="340.000000pt" height="340.000000pt" viewBox="0 0 340.000000 340.000000"
 preserveAspectRatio="xMidYMid meet">
<metadata>
Created by potrace 1.11, written by Peter Selinger 2001-2013
</metadata>
<g transform="translate(0.000000,340.000000) scale(0.100000,-0.100000)"
fill="#000000" stroke="none">
<path d="M282 3385 c-23 -7 -49 -18 -57 -25 -8 -6 -20 -8 -26 -4 -7 4 -9 3 -6
-3 6 -9 -14 -25 -33 -27 -6 0 -89 -86 -84 -86 2 0 -8 -19 -23 -42 -55 -89 -53
-22 -53 -1498 0 -1476 -2 -1409 53 -1497 15 -24 25 -43 23 -43 -2 0 15 -19 38
-43 22 -23 43 -41 44 -40 2 1 25 -11 50 -27 26 -16 67 -34 92 -40 32 -8 441
-10 1425 -8 l1380 3 44 22 c24 12 49 19 54 16 6 -3 7 -1 4 4 -6 9 14 25 33 27
6 0 89 86 84 86 -2 0 9 21 25 48 16 26 35 67 41 92 8 32 10 441 8 1425 l-3
1380 -35 69 c-19 37 -54 87 -77 111 -24 23 -43 41 -43 39 0 -3 -19 8 -42 23
-89 55 -21 53 -1502 52 -1115 0 -1379 -3 -1414 -14z"/>
</g>
</svg>
